<?xml version="1.0" encoding="UTF-8"?>
<svg version="1.1" xmlns="http://www.w3.org/2000/svg" width="1024" height="1024">
<path d="M0 0 C5.92028721 6.3876783 5.28586534 11.58971169 5 20 C4.61090045 25.15890037 4.06819748 30.29556871 3.5 35.4375 C3.21465844 38.06079117 2.93469824 40.68455059 2.65625 43.30859375 C2.53056641 44.45126709 2.40488281 45.59394043 2.27539062 46.77124023 C2.01139332 49.86642136 1.95067966 52.89546094 2 56 C1.67 56 1.34 56 1 56 C0.15633785 62.11472158 -0.67947468 68.23045081 -1.50854492 74.34716797 C-1.79065603 76.42069265 -2.07477864 78.49394482 -2.36108398 80.56689453 C-4.03636502 92.70754764 -5.49100978 104.74843752 -6 117 C-6.66 117 -7.32 117 -8 117 C-8.03303223 117.83015625 -8.06606445 118.6603125 -8.10009766 119.515625 C-8.74058584 132.17312793 -10.29915507 144.69886568 -11.90136719 157.26611328 C-12.37735804 161.01858966 -12.83739605 164.77281413 -13.296875 168.52734375 C-13.6005952 170.93501805 -13.90524946 173.34257475 -14.2109375 175.75 C-14.34543304 176.86157471 -14.47992859 177.97314941 -14.61849976 179.1184082 C-16.5906212 194.25142172 -16.5906212 194.25142172 -22.0625 198.9375 C-26.0390052 201.72951429 -27.57911793 202.15322621 -32.375 201.8125 C-33.33148437 201.75707031 -34.28796875 201.70164062 -35.2734375 201.64453125 C-38.67446141 200.84056428 -39.67895737 199.5724515 -42 197 C-43.95739366 195.43078145 -45.93912731 193.8916883 -47.9375 192.375 C-49.08874726 191.50027052 -50.23978234 190.62526172 -51.390625 189.75 C-52.27717773 189.07710938 -52.27717773 189.07710938 -53.18164062 188.390625 C-55.02286379 186.98251448 -56.84903774 185.5568124 -58.671875 184.125 C-59.26105713 183.66432129 -59.85023926 183.20364258 -60.45727539 182.72900391 C-61.59463084 181.83895546 -62.72932414 180.94549272 -63.86108398 180.04833984 C-66.60511631 177.70524731 -66.60511631 177.70524731 -70 177 C-71.50391545 178.90475242 -72.88281147 180.8118818 -74.25 182.8125 C-75.15218987 184.10388297 -76.05592096 185.39419016 -76.9609375 186.68359375 C-77.44916992 187.38081543 -77.93740234 188.07803711 -78.44042969 188.79638672 C-81.19928291 192.69454094 -84.03770073 196.53375728 -86.875 200.375 C-87.47143311 201.18356445 -88.06786621 201.99212891 -88.68237305 202.82519531 C-92.44959007 207.92420529 -96.24755235 212.99915084 -100.0625 218.0625 C-104.21631068 223.57570213 -108.28626375 229.14302997 -112.3125 234.75 C-117.5629202 242.05953237 -122.92784272 249.27581438 -128.34082031 256.46557617 C-132.61250681 262.14196082 -136.85226834 267.84038827 -141.0625 273.5625 C-141.63750244 274.34375244 -142.21250488 275.12500488 -142.80493164 275.92993164 C-145.68252394 279.8423092 -148.55556933 283.75798699 -151.42578125 287.67578125 C-158.33749926 297.09817862 -165.35230692 306.43318014 -172.45166016 315.71508789 C-176.38440226 320.86194251 -180.25757805 326.04138038 -184.0390625 331.30078125 C-187.03021615 335.41808637 -190.10051494 339.47534627 -193.16162109 343.54077148 C-196.51322025 347.99899148 -199.82756323 352.48265536 -203.12280273 356.98266602 C-208.33205329 364.09503138 -213.61756128 371.12865165 -219.0625 378.0625 C-234.15739991 394.977687 -234.15739991 394.977687 -241.2515564 415.00393677 C-241.25452654 415.72137774 -241.25749667 416.43881872 -241.26055682 417.17800033 C-241.26821235 419.58896229 -241.26169617 421.99968172 -241.25537109 424.41064453 C-241.25812055 426.1371782 -241.26180018 427.8637106 -241.26634216 429.59024048 C-241.27446526 433.31432934 -241.27661967 437.03835812 -241.27439499 440.76245499 C-241.27156141 446.66508122 -241.28591944 452.56758776 -241.30337524 458.47018433 C-241.35038577 475.25761077 -241.37431259 492.04503022 -241.38085938 508.83251953 C-241.38462608 518.09995725 -241.40279139 527.36726047 -241.43595374 536.63464057 C-241.45604144 542.48655635 -241.45859909 548.33812217 -241.44767356 554.19005799 C-241.44504124 557.85765275 -241.45919363 561.5250497 -241.47775459 565.19259262 C-241.48301754 566.87540714 -241.48168281 568.55825948 -241.47271919 570.24105835 C-241.37362605 590.50339027 -245.18013098 608.64702362 -259.703125 623.73046875 C-260.46109375 624.47941406 -261.2190625 625.22835937 -262 626 C-262.67546875 626.69738281 -263.3509375 627.39476562 -264.046875 628.11328125 C-279.85943641 643.42055404 -300.72235955 647.27604247 -321.94555664 647.02172852 C-323.68854034 647.0073172 -323.68854034 647.0073172 -325.46673584 646.99261475 C-329.28127468 646.95981455 -333.0956921 646.91941061 -336.91015625 646.87890625 C-339.56529955 646.85458655 -342.22044329 646.830691 -344.87559509 646.80735779 C-351.13334291 646.75144021 -357.39102426 646.6900436 -363.64870018 646.62663645 C-370.77811773 646.55466613 -377.90758817 646.48886783 -385.03706944 646.42356598 C-399.69144748 646.28920337 -414.34574496 646.14716131 -429 646 C-429.42974121 647.14263306 -429.42974121 647.14263306 -429.86816406 648.30834961 C-431.33021649 651.78529697 -433.48188162 654.58332853 -435.75 657.5625 C-439.72424091 662.8634971 -443.56741915 668.23283833 -447.32080078 673.69262695 C-458.38086063 689.75291143 -469.92502841 704.5388952 -490 709 C-498.68899884 710.42442604 -507.23076139 710.10817093 -516 709.625 C-517.918125 709.52058594 -517.918125 709.52058594 -519.875 709.4140625 C-523 709 -523 709 -525 707 C-527.4681313 705.89560595 -529.93925432 704.84361285 -532.4375 703.8125 C-554.25039647 694.46689433 -570.38177358 677.11404201 -584.875 658.6875 C-585.32697754 658.11330322 -585.77895508 657.53910645 -586.24462891 656.94750977 C-588.33401578 654.25887459 -590.17132635 651.70258316 -591.87890625 648.73828125 C-594.62421267 645.19415639 -596.77632366 644.67016603 -601.0625 643.5 C-619.00087986 638.112201 -633.12030959 626.08552721 -642.546875 609.88671875 C-648.12619659 598.80306645 -650.13650544 588.4219515 -650.20333862 576.18211365 C-650.21303708 575.08903898 -650.22273554 573.99596432 -650.23272789 572.86976618 C-650.26391381 569.20152889 -650.28806398 565.53328143 -650.31201172 561.86499023 C-650.32720536 559.90401981 -650.34240492 557.9430494 -650.3580502 555.98208253 C-650.42070817 548.12320854 -650.47398918 540.26428716 -650.52496576 532.40532994 C-650.55456865 527.85263692 -650.58625304 523.29995961 -650.61812973 518.74728203 C-651.0806638 452.27073842 -651.15573056 385.79482481 -651.12946185 319.31691925 C-651.12488403 307.50058286 -651.12586509 295.6842562 -651.13037109 283.86791992 C-651.13573357 269.80081143 -651.13783291 255.73370859 -651.13475883 241.66659921 C-651.1344405 240.17120548 -651.13412613 238.67581175 -651.13381577 237.18041801 C-651.13366149 236.44621346 -651.13350721 235.7120089 -651.13334826 234.95555573 C-651.13249643 229.86389893 -651.13391422 224.77224589 -651.13629532 219.68058968 C-651.1394018 212.89829781 -651.13717008 206.11602744 -651.13140106 199.33373642 C-651.13008807 196.86871179 -651.13044248 194.40368556 -651.13266373 191.93866158 C-651.1773426 137.3285507 -651.1773426 137.3285507 -632.4765625 118.2421875 C-617.38036203 104.57464954 -601.71485688 98.48899245 -581.36279297 98.6257782 C-580.16029341 98.62180379 -578.95779385 98.61782939 -577.7188549 98.61373454 C-574.42113944 98.60584319 -571.12377067 98.61120033 -567.82607555 98.62248504 C-564.25409535 98.6313992 -560.68214846 98.62286289 -557.11016846 98.61662292 C-550.12847657 98.60717457 -543.14688865 98.61369987 -536.16520452 98.62588587 C-528.0218154 98.63956544 -519.87845052 98.63786276 -511.73505282 98.63575254 C-497.19769628 98.63256843 -482.66038885 98.64419701 -468.12304688 98.66381836 C-454.04100041 98.68281999 -439.9590115 98.68990516 -425.87695312 98.68432617 C-410.51466794 98.67825792 -395.152408 98.67846459 -379.79012489 98.689812 C-378.14965439 98.6910192 -376.50918388 98.69222518 -374.86871338 98.69342995 C-374.06172906 98.69403349 -373.25474474 98.69463702 -372.42330635 98.69525885 C-366.75711586 98.69912578 -361.09093482 98.69874914 -355.42474365 98.6968441 C-348.51245025 98.6947142 -341.60020703 98.70000613 -334.68792772 98.71445765 C-331.16629125 98.7216633 -327.64472759 98.72581171 -324.12308502 98.72121429 C-320.29437931 98.71797306 -316.46589046 98.72712329 -312.63720703 98.73930359 C-310.99140058 98.7336346 -310.99140058 98.7336346 -309.3123455 98.72785109 C-301.72501747 98.77031886 -294.46607516 99.66721558 -287 101 C-287 101.66 -287 102.32 -287 103 C-286.27167969 103.12246094 -285.54335938 103.24492187 -284.79296875 103.37109375 C-275.86833717 105.38069611 -268.75081287 111.10588927 -262 117 C-261.37222656 117.52078125 -260.74445313 118.0415625 -260.09765625 118.578125 C-248.26236536 129.20573315 -243.27312379 145.80596201 -241 161 C-240.67 161 -240.34 161 -240 161 C-240 163.64 -240 166.28 -240 169 C-240.33 169 -240.66 169 -241 169 C-241 186.16 -241 203.32 -241 221 C-238.36 217.37 -235.72 213.74 -233 210 C-231.30773034 207.80004945 -229.6014021 205.61076824 -227.875 203.4375 C-226.93177708 202.2465011 -225.98909644 201.0550726 -225.046875 199.86328125 C-224.55509766 199.24146973 -224.06332031 198.6196582 -223.55664062 197.97900391 C-221.32043134 195.13604399 -219.10938375 192.27382599 -216.89599609 189.41308594 C-211.75691814 182.77351624 -206.56495374 176.18731604 -201.25 169.6875 C-196.17270033 163.47762432 -191.24506522 157.17695132 -186.37792969 150.80029297 C-178.45953956 140.45475632 -170.43118506 130.20376166 -162.17456055 120.12573242 C-161.19457349 118.92932569 -160.21763626 117.73041032 -159.24462891 116.52832031 C-158.2051787 115.2519456 -157.14243871 113.99458331 -156.07421875 112.7421875 C-155.71972656 112.16726563 -155.36523438 111.59234375 -155 111 C-156.16003545 107.51989366 -156.89974813 107.11254128 -159.8671875 105.14453125 C-160.66511719 104.60852295 -161.46304687 104.07251465 -162.28515625 103.52026367 C-163.13980469 102.95670166 -163.99445313 102.39313965 -164.875 101.8125 C-166.62318528 100.63919623 -168.37058591 99.46472248 -170.1171875 98.2890625 C-170.96249023 97.72219727 -171.80779297 97.15533203 -172.67871094 96.57128906 C-176.35696096 94.08146816 -179.93715865 91.47387016 -183.5078125 88.83203125 C-185.29887997 87.51540015 -187.10858816 86.22398829 -188.9296875 84.94921875 C-201.36513741 76.19162737 -201.36513741 76.19162737 -202.4296875 70.83984375 C-202.65355313 66.89585801 -202.1675173 64.36295414 -200.5 60.75 C-194.24693064 53.8716237 -186.10126987 51.41249585 -177.42578125 48.71484375 C-175.62454048 48.14039268 -175.62454048 48.14039268 -173.78691101 47.55433655 C-170.61000468 46.54344589 -167.43037528 45.54225778 -164.2489624 44.54571533 C-161.04938288 43.54077286 -157.85407477 42.52253209 -154.65820312 41.50585938 C-148.86538129 39.66659826 -143.07095131 37.83284999 -137.26919556 36.02194214 C-134.97451806 35.30463184 -132.68185569 34.58085844 -130.39071655 33.85232544 C-129.22561554 33.48541595 -128.06051453 33.11850647 -126.86010742 32.74047852 C-125.80780441 32.40669693 -124.7555014 32.07291534 -123.67131042 31.72901917 C-121 31 -121 31 -118 31 C-117.67 30.34 -117.34 29.68 -117 29 C-114.84765625 28.25390625 -114.84765625 28.25390625 -112.0625 27.5625 C-111.07636719 27.30726563 -110.09023438 27.05203125 -109.07421875 26.7890625 C-108.05972656 26.52867187 -107.04523437 26.26828125 -106 26 C-104.12147719 25.49201927 -102.24611976 24.97210565 -100.375 24.4375 C-99.14910156 24.09525391 -99.14910156 24.09525391 -97.8984375 23.74609375 C-95.80518331 23.16775837 -95.80518331 23.16775837 -95 21 C-93.07276598 20.73686825 -91.14371455 20.48238669 -89.20870972 20.28433228 C-85.86066019 19.85333017 -82.75196013 18.86148977 -79.53515625 17.85546875 C-78.85754745 17.64440994 -78.17993866 17.43335114 -77.48179626 17.21589661 C-76.05982258 16.77118385 -74.63889308 16.32311941 -73.21899414 15.87182617 C-71.0739048 15.19111912 -68.9250537 14.52352504 -66.77539062 13.85742188 C-60.29477789 11.8291385 -53.91793045 9.76495983 -47.79467773 6.7902832 C-45.88247968 5.94825013 -44.03587933 5.45673603 -42 5 C-36.9579524 3.69541426 -31.94830324 2.33090756 -27.00390625 0.69140625 C-26.31071289 0.46420898 -25.61751953 0.23701172 -24.90332031 0.00292969 C-23.5438382 -0.44599785 -22.18746377 -0.90448789 -20.83496094 -1.37402344 C-13.43512527 -3.80587683 -7.01200307 -3.91054017 0 0 Z M-589 164 C-589.556875 164.598125 -590.11375 165.19625 -590.6875 165.8125 C-594.77519235 172.62532059 -594.29139275 180.66308096 -594.2746582 188.33178711 C-594.27976913 189.54744858 -594.28488007 190.76311005 -594.29014587 192.01560974 C-594.30161707 195.32976718 -594.30412314 198.64367348 -594.30158257 201.95783305 C-594.30050782 204.733507 -594.305409 207.50915824 -594.310188 210.28482729 C-594.32125673 216.83728193 -594.32173529 223.38967922 -594.31567383 229.94213867 C-594.30963404 236.68253776 -594.32195111 243.42272811 -594.3432439 250.1630916 C-594.36090415 255.96887914 -594.36685436 261.77460049 -594.36360615 267.58041388 C-594.36180038 271.03975553 -594.36435849 274.4989482 -594.37832069 277.9582653 C-594.39332041 281.81853187 -594.3838903 285.67853584 -594.37231445 289.53881836 C-594.37995819 290.67208557 -594.38760193 291.80535278 -594.39547729 292.97296143 C-594.33608691 301.95642835 -592.91718015 309.93225705 -587 317 C-578.91338988 322.70819538 -570.19547265 323.30003762 -560.53199768 323.25396729 C-559.51455898 323.25708727 -558.49712027 323.26020725 -557.4488501 323.26342177 C-554.05902047 323.27136264 -550.6693718 323.26509334 -547.27954102 323.25878906 C-544.84126684 323.26150067 -542.40299349 323.26506256 -539.96472168 323.26940918 C-534.04096524 323.27757089 -528.11725535 323.27639172 -522.19350023 323.2705839 C-517.37638604 323.26605759 -512.55928604 323.26545869 -507.74217033 323.26763153 C-506.71173287 323.26809123 -506.71173287 323.26809123 -505.66047848 323.26856022 C-504.2646966 323.2691997 -502.86891472 323.26984813 -501.47313284 323.2705054 C-488.39971125 323.27620183 -475.32631775 323.26966182 -462.25290077 323.25890467 C-451.05001548 323.24997178 -439.84717165 323.25152037 -428.64428711 323.26074219 C-415.61753706 323.27146042 -402.59081161 323.27565047 -389.56405777 323.26951766 C-388.17325366 323.2688806 -386.78244955 323.26825186 -385.39164543 323.26763153 C-384.36534326 323.2671687 -384.36534326 323.2671687 -383.31830772 323.26669653 C-378.51086511 323.26497409 -373.70343818 323.26787497 -368.895998 323.27259064 C-362.41744173 323.27880614 -355.93894516 323.27434091 -349.46039581 323.26280212 C-347.08606788 323.2601631 -344.71173335 323.26090766 -342.33740807 323.26532745 C-339.08984602 323.27081425 -335.8425323 323.26391066 -332.59498596 323.25396729 C-331.66140733 323.25842873 -330.72782869 323.26289017 -329.7659598 323.26748681 C-322.1092953 323.22219688 -313.18936301 322.98587576 -307 318 C-298.41772908 309.13810622 -297.84973915 301.43221903 -297.85473633 289.40185547 C-297.85137772 288.24007278 -297.8480191 287.0782901 -297.84455872 285.88130188 C-297.83506607 282.04325285 -297.83310624 278.20524754 -297.83203125 274.3671875 C-297.82962973 272.36830006 -297.82722636 270.3694126 -297.82457083 268.37052548 C-297.81643887 262.08360231 -297.81398532 255.79669345 -297.81469727 249.50976562 C-297.81529668 243.05126085 -297.80476932 236.59283996 -297.7889536 230.13435638 C-297.77581662 224.56890948 -297.77051599 219.00348976 -297.77115268 213.4380275 C-297.77140601 210.12334271 -297.76770791 206.80874854 -297.75797462 203.49407578 C-297.74811208 199.78748496 -297.75107784 196.08110639 -297.75708008 192.37451172 C-297.75146057 191.29564194 -297.74584106 190.21677216 -297.74005127 189.10520935 C-297.75974286 174.28949817 -297.75974286 174.28949817 -304.66015625 161.71875 C-311.67752838 156.564086 -318.35235581 155.41502583 -326.89906311 155.49879456 C-327.96283202 155.49326016 -329.02660093 155.48772576 -330.12260526 155.48202366 C-333.66929905 155.46846487 -337.21528332 155.48336108 -340.76196289 155.49829102 C-343.31185708 155.49450615 -345.86174921 155.48900473 -348.41163635 155.48191833 C-354.60751638 155.46941642 -360.80313542 155.47551693 -366.99900229 155.49059392 C-374.22015494 155.50749396 -381.44125722 155.50423877 -388.66242354 155.50049984 C-401.54948568 155.49462748 -414.43644997 155.50876881 -427.32348633 155.53344727 C-439.81798977 155.5573712 -452.31236253 155.56444879 -464.80688477 155.55395508 C-478.42619578 155.54253713 -492.04544642 155.54062625 -505.66475672 155.55505317 C-507.11787346 155.55657895 -508.57099022 155.55809931 -510.02410698 155.55961418 C-510.73899506 155.560372 -511.45388315 155.56112981 -512.1904345 155.56191059 C-517.21973447 155.56664625 -522.24900741 155.56480712 -527.27830696 155.56054878 C-534.05074967 155.55509815 -540.82298508 155.56589741 -547.59540367 155.58750343 C-550.0802207 155.59306579 -552.56505511 155.59354167 -555.04987335 155.58855057 C-558.44275606 155.58259035 -561.83508746 155.59511784 -565.22792053 155.61231995 C-566.21012528 155.6063099 -567.19233003 155.60029986 -568.20429856 155.59410769 C-576.7806581 155.67312423 -583.19584274 157.20084436 -589 164 Z " fill="#1497F0" transform="translate(854,147)"/>
<path d="M0 0 C5.92028721 6.3876783 5.28586534 11.58971169 5 20 C4.61090045 25.15890037 4.06819748 30.29556871 3.5 35.4375 C3.21465844 38.06079117 2.93469824 40.68455059 2.65625 43.30859375 C2.53056641 44.45126709 2.40488281 45.59394043 2.27539062 46.77124023 C2.01139332 49.86642136 1.95067966 52.89546094 2 56 C1.67 56 1.34 56 1 56 C0.15633785 62.11472158 -0.67947468 68.23045081 -1.50854492 74.34716797 C-1.79065603 76.42069265 -2.07477864 78.49394482 -2.36108398 80.56689453 C-4.03636502 92.70754764 -5.49100978 104.74843752 -6 117 C-6.66 117 -7.32 117 -8 117 C-8.03303223 117.83015625 -8.06606445 118.6603125 -8.10009766 119.515625 C-8.74058584 132.17312793 -10.29915507 144.69886568 -11.90136719 157.26611328 C-12.37735804 161.01858966 -12.83739605 164.77281413 -13.296875 168.52734375 C-13.6005952 170.93501805 -13.90524946 173.34257475 -14.2109375 175.75 C-14.34543304 176.86157471 -14.47992859 177.97314941 -14.61849976 179.1184082 C-16.5906212 194.25142172 -16.5906212 194.25142172 -22.0625 198.9375 C-26.0390052 201.72951429 -27.57911793 202.15322621 -32.375 201.8125 C-33.33148437 201.75707031 -34.28796875 201.70164062 -35.2734375 201.64453125 C-38.67446141 200.84056428 -39.67895737 199.5724515 -42 197 C-43.95739366 195.43078145 -45.93912731 193.8916883 -47.9375 192.375 C-49.08874726 191.50027052 -50.23978234 190.62526172 -51.390625 189.75 C-51.98166016 189.30140625 -52.57269531 188.8528125 -53.18164062 188.390625 C-55.02286379 186.98251448 -56.84903774 185.5568124 -58.671875 184.125 C-59.26105713 183.66432129 -59.85023926 183.20364258 -60.45727539 182.72900391 C-61.59463084 181.83895546 -62.72932414 180.94549272 -63.86108398 180.04833984 C-66.60511631 177.70524731 -66.60511631 177.70524731 -70 177 C-71.50391545 178.90475242 -72.88281147 180.8118818 -74.25 182.8125 C-75.15218987 184.10388297 -76.05592096 185.39419016 -76.9609375 186.68359375 C-77.44916992 187.38081543 -77.93740234 188.07803711 -78.44042969 188.79638672 C-81.19928291 192.69454094 -84.03770073 196.53375728 -86.875 200.375 C-87.47143311 201.18356445 -88.06786621 201.99212891 -88.68237305 202.82519531 C-92.44959007 207.92420529 -96.24755235 212.99915084 -100.0625 218.0625 C-104.21631068 223.57570213 -108.28626375 229.14302997 -112.3125 234.75 C-117.5629202 242.05953237 -122.92784272 249.27581438 -128.34082031 256.46557617 C-132.61250681 262.14196082 -136.85226834 267.84038827 -141.0625 273.5625 C-141.63750244 274.34375244 -142.21250488 275.12500488 -142.80493164 275.92993164 C-145.68252394 279.8423092 -148.55556933 283.75798699 -151.42578125 287.67578125 C-158.33749926 297.09817862 -165.35230692 306.43318014 -172.45166016 315.71508789 C-176.38440226 320.86194251 -180.25757805 326.04138038 -184.0390625 331.30078125 C-187.03021615 335.41808637 -190.10051494 339.47534627 -193.16162109 343.54077148 C-196.51322025 347.99899148 -199.82756323 352.48265536 -203.12280273 356.98266602 C-208.33205329 364.09503138 -213.61756128 371.12865165 -219.0625 378.0625 C-226.69772241 387.78798569 -234.13925946 397.7088892 -241 408 C-241.66 408 -242.32 408 -243 408 C-243.15006661 384.02490082 -243.23092994 360.05041879 -243.23059464 336.0748291 C-243.23203251 324.9411089 -243.25566608 313.80828086 -243.33251953 302.67480469 C-243.39948949 292.96480186 -243.42382816 283.2557611 -243.39809489 273.54554558 C-243.38594156 268.40897973 -243.39437318 263.27439875 -243.4539566 258.13812256 C-243.50950775 253.29116051 -243.50752735 248.447441 -243.46369362 243.60039139 C-243.45743827 241.8332488 -243.47120394 240.06588806 -243.50784111 238.29911423 C-243.76455539 225.08631291 -240.36175262 217.66289081 -231.59523726 207.81539154 C-229.3995371 205.31666887 -227.34761782 202.71309901 -225.2877562 200.10219193 C-223.82581997 198.2501983 -222.34679948 196.41285793 -220.86328125 194.578125 C-218.20956839 191.27848336 -215.6295962 187.92999937 -213.0625 184.5625 C-209.30207997 179.62971372 -205.42590564 174.80193888 -201.5 170 C-196.33999145 163.68526763 -191.32602656 157.28302249 -186.37792969 150.80029297 C-178.45953956 140.45475632 -170.43118506 130.20376166 -162.17456055 120.12573242 C-161.19457349 118.92932569 -160.21763626 117.73041032 -159.24462891 116.52832031 C-158.2051787 115.2519456 -157.14243871 113.99458331 -156.07421875 112.7421875 C-155.71972656 112.16726563 -155.36523438 111.59234375 -155 111 C-156.16003545 107.51989366 -156.89974813 107.11254128 -159.8671875 105.14453125 C-160.66511719 104.60852295 -161.46304688 104.07251465 -162.28515625 103.52026367 C-163.13980469 102.95670166 -163.99445313 102.39313965 -164.875 101.8125 C-166.62318528 100.63919623 -168.37058591 99.46472248 -170.1171875 98.2890625 C-171.3851416 97.43876465 -171.3851416 97.43876465 -172.67871094 96.57128906 C-176.35696096 94.08146816 -179.93715865 91.47387016 -183.5078125 88.83203125 C-185.29887997 87.51540015 -187.10858816 86.22398829 -188.9296875 84.94921875 C-201.36513741 76.19162737 -201.36513741 76.19162737 -202.4296875 70.83984375 C-202.65355313 66.89585801 -202.1675173 64.36295414 -200.5 60.75 C-194.24693064 53.8716237 -186.10126987 51.41249585 -177.42578125 48.71484375 C-175.62454048 48.14039268 -175.62454048 48.14039268 -173.78691101 47.55433655 C-170.61000468 46.54344589 -167.43037528 45.54225778 -164.2489624 44.54571533 C-161.04938288 43.54077286 -157.85407477 42.52253209 -154.65820312 41.50585938 C-148.86538129 39.66659826 -143.07095131 37.83284999 -137.26919556 36.02194214 C-134.97451806 35.30463184 -132.68185569 34.58085844 -130.39071655 33.85232544 C-129.22561554 33.48541595 -128.06051453 33.11850647 -126.86010742 32.74047852 C-125.80780441 32.40669693 -124.7555014 32.07291534 -123.67131042 31.72901917 C-121 31 -121 31 -118 31 C-117.505 30.01 -117.505 30.01 -117 29 C-114.84765625 28.25390625 -114.84765625 28.25390625 -112.0625 27.5625 C-111.07636719 27.30726563 -110.09023438 27.05203125 -109.07421875 26.7890625 C-108.05972656 26.52867187 -107.04523438 26.26828125 -106 26 C-104.12147719 25.49201927 -102.24611976 24.97210565 -100.375 24.4375 C-99.14910156 24.09525391 -99.14910156 24.09525391 -97.8984375 23.74609375 C-95.80518331 23.16775837 -95.80518331 23.16775837 -95 21 C-93.07276598 20.73686825 -91.14371455 20.48238669 -89.20870972 20.28433228 C-85.86066019 19.85333017 -82.75196013 18.86148977 -79.53515625 17.85546875 C-78.85754745 17.64440994 -78.17993866 17.43335114 -77.48179626 17.21589661 C-76.05982258 16.77118385 -74.63889308 16.32311941 -73.21899414 15.87182617 C-71.0739048 15.19111912 -68.9250537 14.52352504 -66.77539062 13.85742188 C-60.29477789 11.8291385 -53.91793045 9.76495983 -47.79467773 6.7902832 C-45.88247968 5.94825013 -44.03587933 5.45673603 -42 5 C-36.9579524 3.69541426 -31.94830324 2.33090756 -27.00390625 0.69140625 C-26.31071289 0.46420898 -25.61751953 0.23701172 -24.90332031 0.00292969 C-23.5438382 -0.44599785 -22.18746377 -0.90448789 -20.83496094 -1.37402344 C-13.43512527 -3.80587683 -7.01200307 -3.91054017 0 0 Z " fill="#FCD839" transform="translate(854,147)"/>
<path d="M0 0 C81.675 0.495 81.675 0.495 165 1 C163.19757288 5.50606781 161.13537137 8.77256727 158.25 12.5625 C154.27575909 17.8634971 150.43258085 23.23283833 146.67919922 28.69262695 C135.61913937 44.75291143 124.07497159 59.5388952 104 64 C95.31100116 65.42442604 86.76923861 65.10817093 78 64.625 C76.72125 64.55539062 75.4425 64.48578125 74.125 64.4140625 C71 64 71 64 69 62 C66.5318687 60.89560595 64.06074568 59.84361285 61.5625 58.8125 C39.75039778 49.46723463 23.68139633 32.11902025 9.125 13.75 C8.67302246 13.18418213 8.22104492 12.61836426 7.75537109 12.03540039 C7.32305176 11.48231201 6.89073242 10.92922363 6.4453125 10.359375 C6.06906738 9.87952148 5.69282227 9.39966797 5.30517578 8.90527344 C3.35245435 6.05472386 1.71428416 2.99999728 0 0 Z " fill="#F1B048" transform="translate(260,792)"/>
<path d="M0 0 C9.51811836 7.8853807 15.15596765 18.55115092 16.38671875 30.87109375 C16.99874618 44.89347288 13.21889548 56.40078824 4.22265625 67.1171875 C-2.60294171 74.51507486 -12.02396918 80.33438941 -22.2409668 81.18701172 C-24.68493303 81.26746946 -27.11740025 81.27304886 -29.5625 81.25 C-30.7990332 81.26160156 -30.7990332 81.26160156 -32.06054688 81.2734375 C-36.76967676 81.25838033 -40.57435992 80.80755478 -45 79 C-45 78.34 -45 77.68 -45 77 C-46.11375 76.835 -47.2275 76.67 -48.375 76.5 C-57.21797737 74.24621462 -63.70008629 67.05470262 -68.53125 59.6484375 C-75.44601365 47.17979454 -76.63513267 33.67957822 -73 20 C-68.25020755 6.84826378 -58.10989675 -2.24240153 -45.67578125 -8.09375 C-29.84407444 -13.89960513 -13.28328114 -9.46859528 0 0 Z " fill="#13AAF7" transform="translate(358,531)"/>
<path d="M0 0 C0.92296875 0.474375 1.8459375 0.94875 2.796875 1.4375 C14.08741584 7.92488258 21.05829097 17.43671493 24.52392578 29.88134766 C27.3453871 42.43757396 25.20518084 55.6949596 18.42578125 66.51171875 C10.73742104 77.06753266 1.00200469 84.80581905 -12 87 C-24.43963131 88.15176385 -35.31206522 87.37425755 -45.6875 79.8125 C-52.65934723 73.96514426 -58.66515983 67.55458999 -62 59 C-62.29777344 58.26394531 -62.59554688 57.52789063 -62.90234375 56.76953125 C-66.7474072 45.90766998 -66.51620004 32.48044773 -61.58984375 22 C-55.09202435 10.15887125 -46.23801813 1.79751511 -33.4375 -2.875 C-22.42870613 -5.77479271 -10.14506 -5.22812908 0 0 Z " fill="#10B5FA" transform="translate(508,525)"/>
<path d="M0 0 C0.74507813 0.34933594 1.49015625 0.69867187 2.2578125 1.05859375 C12.27852115 6.42262014 18.54285485 17.11999358 22.25 27.5 C25.09903085 40.48747398 23.15202201 53.56398518 16.3515625 64.91796875 C15.68253906 65.94857422 15.68253906 65.94857422 15 67 C14.61585938 67.59425781 14.23171875 68.18851563 13.8359375 68.80078125 C10.64660859 73.05648087 6.52721278 75.90833108 2.125 78.8125 C1.5482251 79.19792969 0.9714502 79.58335937 0.37719727 79.98046875 C-6.66915253 84.43017208 -13.65442247 85.37065823 -21.875 85.3125 C-23.05364624 85.30839111 -23.05364624 85.30839111 -24.25610352 85.30419922 C-31.54401132 85.17329223 -37.85893263 84.09404492 -44 80 C-44 79.34 -44 78.68 -44 78 C-44.72316406 77.92394531 -45.44632812 77.84789062 -46.19140625 77.76953125 C-52.68707721 75.98977161 -57.46070035 69.45847244 -60.91015625 63.94921875 C-66.86103745 52.44223225 -69.23931602 39.7970076 -66.3125 26.9921875 C-61.39525716 13.92051696 -52.29439103 4.31954679 -40 -2 C-39.33742188 -2.34289062 -38.67484375 -2.68578125 -37.9921875 -3.0390625 C-25.92614026 -8.10207056 -11.24569859 -5.7184218 0 0 Z " fill="#13A9F6" transform="translate(510,647)"/>
<path d="M0 0 C2.28854153 1.88468126 3.03649899 3.02874747 4.125 5.75 C4.3203125 8.109375 4.3203125 8.109375 4.25 10.5 C4.23195313 11.29921875 4.21390625 12.0984375 4.1953125 12.921875 C4.17210937 13.52515625 4.14890625 14.1284375 4.125 14.75 C4.87523437 14.88535156 5.62546875 15.02070313 6.3984375 15.16015625 C16.62328961 17.31072338 24.48330498 21.83291071 31.07421875 30.0390625 C32.60125067 32.52545648 32.98437671 34.86722246 33.125 37.75 C29.8033662 39.44089206 26.46846115 41.10270993 23.125 42.75 C22.44953125 43.09160156 21.7740625 43.43320312 21.078125 43.78515625 C18.4866632 45.0178206 16.3804373 45.74391816 13.5 45.8125 C10.63565363 44.53108189 9.37985999 42.67874772 7.4765625 40.25 C4.21790953 36.63346028 0.62416888 35.90160135 -4.00390625 35.43359375 C-11.08955122 35.09573021 -11.08955122 35.09573021 -17.625 37.4375 C-20.15401105 40.03676136 -20.875 41.1413409 -20.875 44.75 C-20.66872806 47.43646632 -20.66872806 47.43646632 -18.875 49.75 C-11.5423955 54.019578 -2.97731615 55.81331064 5.15429688 57.9296875 C15.56010613 60.79842368 25.15214752 65.37593986 31.125 74.75 C34.87207181 83.27458836 35.16410725 91.9572431 32.125 100.75 C27.9657125 109.41760612 20.88503794 114.66327367 12.3125 118.6875 C9.33356571 119.6804781 7.23045393 120.03231399 4.125 119.75 C4.2075 120.61625 4.29 121.4825 4.375 122.375 C4.06596673 126.54694919 2.69135985 128.5043096 0.125 131.75 C-2.32471624 132.97485812 -4.01734461 132.91722808 -6.75 132.9375 C-7.61367188 132.95167969 -8.47734375 132.96585938 -9.3671875 132.98046875 C-12.08808598 132.73041733 -13.63052495 132.30197837 -15.875 130.75 C-16.88671875 128.91015625 -16.88671875 128.91015625 -17.5625 126.8125 C-17.90861328 125.77802734 -17.90861328 125.77802734 -18.26171875 124.72265625 C-18.46410156 124.07167969 -18.66648437 123.42070312 -18.875 122.75 C-19.205 121.76 -19.535 120.77 -19.875 119.75 C-20.9475 119.70875 -22.02 119.6675 -23.125 119.625 C-31.90426072 118.54519788 -40.75696976 113.2432087 -46.67578125 106.78515625 C-47.17464844 106.13417969 -47.67351562 105.48320312 -48.1875 104.8125 C-48.69925781 104.16410156 -49.21101563 103.51570313 -49.73828125 102.84765625 C-51.10892161 100.31833023 -51.08702308 98.58519237 -50.875 95.75 C-45.4094765 93.2146621 -39.92658079 90.71681726 -34.375 88.375 C-33.18390625 87.86839844 -33.18390625 87.86839844 -31.96875 87.3515625 C-29.875 86.75 -29.875 86.75 -26.875 87.75 C-25.54166667 89.75 -24.20833333 91.75 -22.875 93.75 C-18.26357469 98.11871871 -13.79560293 99.8137047 -7.5 100.0625 C-2.92610638 99.92342891 1.24761539 99.30780849 5.125 96.75 C7.82760189 92.73470577 8.32524346 90.82403313 7.4375 86.0625 C4.96103399 81.31692756 -0.09279596 80.37912999 -4.875 78.75 C-8.33420846 77.71136303 -11.81965004 76.79279864 -15.3125 75.875 C-27.26501578 72.55695477 -37.40264556 69.07190281 -43.875 57.75 C-46.85993013 50.49370521 -47.15792705 41.889828 -45.2578125 34.27734375 C-41.34004115 25.55770222 -33.95290401 20.26854526 -25.390625 16.66015625 C-23.22608562 15.87702321 -21.11971495 15.24824281 -18.875 14.75 C-18.83632813 13.75419922 -18.83632813 13.75419922 -18.796875 12.73828125 C-18.44523826 7.26393662 -18.13386018 3.6330784 -13.875 -0.25 C-9.01576124 -1.86974625 -4.66540052 -2.02843501 0 0 Z " fill="#0EAAFA" transform="translate(413.875,322.25)"/>
<path d="M0 0 C0.33 0 0.66 0 1 0 C1.1279841 49.40202661 1.25543378 98.80405458 1.38218227 148.20608437 C1.39719974 154.05918321 1.41222157 159.91228204 1.42724609 165.76538086 C1.43023671 166.93046236 1.43322732 168.09554386 1.43630856 169.29593085 C1.48452873 188.07747673 1.53310033 206.85902168 1.58180541 225.6405663 C1.6318989 244.96057569 1.68160637 264.28058604 1.73096704 283.60059732 C1.7613542 295.48965442 1.79203047 307.3787107 1.82309544 319.26776605 C1.84446642 327.45790124 1.86545721 335.64803735 1.88616979 343.83817423 C1.90030685 349.42325584 1.91478552 355.00833635 1.92970717 360.59341592 C1.93647058 363.18125786 1.94273095 365.76910068 1.94895172 368.35694396 C1.95704737 371.67221201 1.96768869 374.98745752 1.98021698 378.30271161 C2.00585939 385.88493634 2.0056103 393.46510463 1.92753378 401.04705842 C1.89157772 404.60543324 1.86629552 408.16385599 1.84126276 411.72232222 C1.82618709 413.39790255 1.80563065 415.07344468 1.77896076 416.74888057 C1.64073008 425.46564818 1.83575247 433.39654224 4.54545259 441.80260426 C4.69545324 442.52774485 4.84545388 443.25288545 5 444 C4.34 444.66 3.68 445.32 3 446 C0.70360096 438.04563092 -0.44392432 430.76797676 -0.4303894 422.5009613 C-0.44037991 421.40701048 -0.45037042 420.31305965 -0.46066368 419.1859588 C-0.4902153 415.5502688 -0.49886849 411.91484831 -0.50732422 408.27905273 C-0.5239804 405.65548755 -0.54185226 403.03192985 -0.56084061 400.40838051 C-0.6045907 394.01366515 -0.63226486 387.61897536 -0.6544033 381.22415255 C-0.67304207 375.95529306 -0.6983733 370.686501 -0.72799301 365.41769218 C-0.73224352 364.65982118 -0.73649402 363.90195018 -0.74087333 363.12111339 C-0.7495298 361.57913702 -0.75818819 360.03716067 -0.76684849 358.49518432 C-0.87858957 338.33023155 -0.94546544 318.16517885 -1 298 C-1.00214359 297.21298568 -1.00428717 296.42597137 -1.00649571 295.61510813 C-1.12317971 252.51571415 -1.14645451 209.41644006 -1.129464 166.31691281 C-1.12488496 154.50057857 -1.12586509 142.68425406 -1.13037109 130.86791992 C-1.13573357 116.80081143 -1.13783291 102.73370859 -1.13475883 88.66659921 C-1.1344405 87.17120548 -1.13412613 85.67581175 -1.13381577 84.18041801 C-1.13366149 83.44621346 -1.13350721 82.7120089 -1.13334826 81.95555573 C-1.13249643 76.86389893 -1.13391422 71.77224589 -1.13629532 66.68058968 C-1.1394018 59.89829781 -1.13717008 53.11602744 -1.13140106 46.33373642 C-1.13008807 43.86871179 -1.13044248 41.40368556 -1.13266373 38.93866158 C-1.14331425 25.9207379 -0.98627683 12.98418078 0 0 Z " fill="#1B78D8" transform="translate(204,300)"/>
<path d="M0 0 C3.17857601 0.0020847 6.35714767 0.00079303 9.53572387 -0.00043333 C17.10992568 -0.00335474 24.68411468 -0.00145166 32.25831485 0.00395441 C39.00994988 0.0087207 45.76156271 0.00882403 52.51319766 0.00395441 C74.81042431 -0.01147551 97.10696223 0.02342308 119.40398002 0.12341356 C121.96824315 0.13449952 124.53250862 0.14438281 127.09677768 0.15399408 C136.471197 0.19013164 145.84523685 0.24124856 155.21933168 0.32868397 C159.20526475 0.36585473 163.19099476 0.39722841 167.17707896 0.41215372 C170.86506251 0.42642238 174.55239203 0.4595817 178.24008751 0.50749397 C180.22170069 0.52864668 182.20349006 0.53059216 184.18521571 0.53188181 C190.95856819 0.64202369 195.42275605 1.05404801 200.92799258 5.1343255 C200.26799258 5.4643255 199.60799258 5.7943255 198.92799258 6.1343255 C198.11363931 5.83069401 197.29928603 5.52706251 196.46025538 5.21423006 C191.7205494 3.76517874 187.34075282 3.84618476 182.41178775 3.8558526 C180.82376316 3.847164 180.82376316 3.847164 179.20365727 3.83829987 C175.65682279 3.82129697 172.11011842 3.81842307 168.56324649 3.81547785 C166.02051863 3.80617989 163.47779383 3.79601142 160.93507266 3.78503656 C155.46106869 3.76336938 149.98710076 3.7477587 144.51306415 3.73766947 C136.59858059 3.72307174 128.68416196 3.69753186 120.76971655 3.66933818 C107.92844946 3.62389006 95.08717302 3.58726707 82.24586368 3.5562005 C69.77319072 3.52600685 57.30054064 3.49165283 44.82789493 3.45170832 C44.05882641 3.44924677 43.28975789 3.44678522 42.49738427 3.44424908 C38.63911747 3.43187432 34.78085094 3.41941782 30.92258453 3.40692067 C-1.07558172 3.30338252 -33.07377296 3.21416949 -65.07200742 3.1343255 C-65.07200742 2.4743255 -65.07200742 1.8143255 -65.07200742 1.1343255 C-43.37468445 0.35082076 -21.71049915 -0.01889408 0 0 Z " fill="#0FB4F9" transform="translate(345.07200741767883,299.865674495697)"/>
<path d="M0 0 C0.66 0 1.32 0 2 0 C4.60018816 3.90028225 4.15085514 7.47434569 4 12 C3.67 12 3.34 12 3 12 C2.67 89.88 2.34 167.76 2 248 C1.67 248 1.34 248 1 248 C1 213.02 1 178.04 1 142 C0.34 141.67 -0.32 141.34 -1 141 C-1.625 138.4375 -1.625 138.4375 -2 136 C-1.34 136 -0.68 136 0 136 C-0.14166357 134.08302063 -0.28849584 132.16642277 -0.4375 130.25 C-0.51871094 129.18265625 -0.59992187 128.1153125 -0.68359375 127.015625 C-0.91184891 124.10025792 -0.91184891 124.10025792 -1.59765625 121.734375 C-2 120 -2 120 -1 118 C-0.92743892 116.61372054 -0.91626842 115.2239523 -0.9375 113.8359375 C-0.94587891 112.97178223 -0.95425781 112.10762695 -0.96289062 111.21728516 C-0.97513672 110.27933105 -0.98738281 109.34137695 -1 108.375 C-1.08947589 96.22864842 -0.6005562 84.12931864 0 72 C-0.66 72 -1.32 72 -2 72 C-1.83628906 70.73881348 -1.67257812 69.47762695 -1.50390625 68.17822266 C-0.91156785 62.82171274 -0.89078989 57.5320612 -0.9375 52.1484375 C-0.94128662 51.13133698 -0.94507324 50.11423645 -0.94897461 49.0663147 C-0.96514009 44.75916371 -0.99316119 40.45211179 -1.02050781 36.14501953 C-1.09056364 24.04932869 -1.08775274 12.05511684 0 0 Z " fill="#44B4CE" transform="translate(610,304)"/>
<path d="M0 0 C2.12723078 3.54538464 2.48318899 6.93934209 3 11 C3.33 11.99 3.66 12.98 4 14 C3.835 14.86625 3.67 15.7325 3.5 16.625 C2.96212708 20.25564221 3.2659276 23.20000912 3.7421875 26.80859375 C4.06452996 29.54850469 4.0706512 32.24460313 4 35 C3.34 35 2.68 35 2 35 C2.15210938 35.93585938 2.30421875 36.87171875 2.4609375 37.8359375 C3.15784961 42.74879849 3.40113652 47.67118526 3.625 52.625 C3.67076172 53.62249268 3.71652344 54.61998535 3.76367188 55.64770508 C4.06883143 63.58372938 3.85818054 71.42678362 3.31884766 79.34814453 C3.26519043 80.16524902 3.2115332 80.98235352 3.15625 81.82421875 C3.10275391 82.53666748 3.04925781 83.24911621 2.99414062 83.9831543 C2.91643745 85.99904226 2.91643745 85.99904226 3.48930359 87.88383484 C4.33632304 91.3936168 4.20514753 94.97718974 4.23828125 98.5703125 C4.246353 99.40658173 4.25442474 100.24285095 4.26274109 101.10446167 C4.27655494 102.87463323 4.28728914 104.64483113 4.29516602 106.41503906 C4.30665381 108.21101785 4.32705465 110.00696336 4.35668945 111.80273438 C4.68931155 131.97561388 4.68931155 131.97561388 0 139 C-1.32086801 140.34568319 -2.65305168 141.68042212 -4 143 C-3.78720461 142.28781909 -3.57440922 141.57563818 -3.35516548 140.84187603 C-1.17992524 132.99449881 -0.5896453 125.83555865 -0.67529297 117.7199707 C-0.67646118 116.4518605 -0.67762939 115.18375031 -0.67883301 113.87721252 C-0.68220674 110.43980395 -0.70383242 107.00273273 -0.72874975 103.5654223 C-0.75141105 99.95714999 -0.75594219 96.34885568 -0.76223755 92.74052429 C-0.77665366 85.92446577 -0.80553334 79.10855723 -0.84048474 72.29257601 C-0.90274462 60.05522834 -0.93995813 47.81778833 -0.97207749 35.58032864 C-0.9839222 31.28704751 -1.00211707 26.99385219 -1.02559257 22.70061934 C-1.04260172 19.41932375 -1.05364004 16.13800565 -1.06591797 12.85668945 C-1.07422638 11.66354126 -1.08253479 10.47039307 -1.09109497 9.24108887 C-1.09405579 8.16321609 -1.0970166 7.08534332 -1.10006714 5.97480774 C-1.10729451 4.56157211 -1.10729451 4.56157211 -1.11466789 3.11978626 C-1 1 -1 1 0 0 Z " fill="#0FB9FB" transform="translate(556,317)"/>
<path d="M0 0 C0.66 0.99 1.32 1.98 2 3 C-15.22781716 11.33877145 -34.08144826 10.39705352 -52.72485352 10.2487793 C-55.49579055 10.23634086 -58.26673627 10.22854705 -61.03768921 10.22055054 C-66.97102691 10.20102952 -72.90422106 10.17042581 -78.83746529 10.13199425 C-87.41560777 10.0764473 -95.99376177 10.0380813 -104.57201218 10.003723 C-118.49428692 9.94750213 -132.41645785 9.8776521 -146.33862305 9.79907227 C-159.85161536 9.72283144 -173.36461577 9.65310817 -186.87768555 9.59204102 C-187.712565 9.58826585 -188.54744446 9.58449068 -189.4076233 9.58060112 C-193.59654607 9.56169946 -197.78546939 9.54292477 -201.97439301 9.52421319 C-236.64970478 9.36915753 -271.32487337 9.19191614 -306 9 C-306 8.67 -306 8.34 -306 8 C-304.75577145 7.99576806 -303.51154289 7.99153612 -302.22961044 7.98717594 C-272.61527052 7.886242 -243.00095181 7.78048491 -213.38665037 7.66888306 C-209.73221366 7.65511544 -206.0777768 7.64138805 -202.42333984 7.62768555 C-201.69588543 7.62495724 -200.96843102 7.62222894 -200.21893254 7.61941796 C-188.47954031 7.57548526 -176.74013899 7.53480309 -165.00073096 7.49534739 C-152.93208817 7.45471184 -140.86346204 7.41052468 -128.79484391 7.36312145 C-122.0257693 7.33663356 -115.25669694 7.31172133 -108.48760223 7.29092598 C-102.101884 7.2711466 -95.71619706 7.24694385 -89.33050728 7.21950912 C-87.00070586 7.21025009 -84.67089764 7.20253639 -82.34108543 7.19658089 C-68.53039452 7.16022469 -54.78673789 6.83216635 -41 6 C-41 6.33 -41 6.66 -41 7 C-37.33340185 7.05864392 -33.66692636 7.09381108 -30 7.125 C-28.97003906 7.14175781 -27.94007813 7.15851562 -26.87890625 7.17578125 C-20.84131797 7.21423723 -15.79861651 6.64380423 -10 5 C-8.68 5 -7.36 5 -6 5 C-6 4.34 -6 3.68 -6 3 C-4.02 2.67 -2.04 2.34 0 2 C0 1.34 0 0.68 0 0 Z " fill="#4C7CBC" transform="translate(570,784)"/>
<path d="M0 0 C48.18 0 96.36 0 146 0 C145.67 0.66 145.34 1.32 145 2 C142.49419602 2.28696929 140.07644381 2.46732761 137.5625 2.5625 C132.63076626 2.59767285 132.63076626 2.59767285 128 4 C126.7625 3.835 125.525 3.67 124.25 3.5 C118.90566632 2.81682466 113.77926856 3.26693626 108.4296875 3.74609375 C104.93811234 4.00458166 101.49985097 4.03776818 98 4 C97.01 4 96.02 4 95 4 C94.505 3.01 94.505 3.01 94 2 C93.401875 2.33 92.80375 2.66 92.1875 3 C88.4716457 4.69867625 84.05786065 4 80 4 C78.70449219 4.01740234 78.70449219 4.01740234 77.3828125 4.03515625 C70.75430865 4.09079117 64.25348716 3.87122401 57.65625 3.21875 C52.83997495 2.78453374 52.83997495 2.78453374 48.125 3.5625 C44.97787022 4.21043849 42.15737408 3.48993736 39 3 C35.54677826 2.86718378 33.28662034 2.90445989 30 4 C29.071875 3.7525 29.071875 3.7525 28.125 3.5 C25.98211291 2.83896775 25.98211291 2.83896775 23.73950195 3.46264648 C20.77011138 4.04509267 18.06738911 4.1131661 15.04296875 4.09765625 C13.93115234 4.09443359 12.81933594 4.09121094 11.67382812 4.08789062 C10.52333984 4.07951172 9.37285156 4.07113281 8.1875 4.0625 C6.43276367 4.05573242 6.43276367 4.05573242 4.64257812 4.04882812 C1.76166642 4.0370693 -1.11914044 4.02063426 -4 4 C-4 3.34 -4 2.68 -4 2 C-2.68 2 -1.36 2 0 2 C0 1.34 0 0.68 0 0 Z " fill="#0DA3F6" transform="translate(391,469)"/>
<path d="M0 0 C0.33 0 0.66 0 1 0 C1.33 2.97 1.66 5.94 2 9 C2.33 9 2.66 9 3 9 C3.02540322 16.70466404 3.04288929 24.40931724 3.05493164 32.11401367 C3.0599532 34.73380944 3.0667717 37.35360243 3.07543945 39.97338867 C3.08760036 43.74398489 3.09325018 47.51454397 3.09765625 51.28515625 C3.10281754 52.45208511 3.10797882 53.61901398 3.11329651 54.82130432 C3.11392051 63.91408871 3.11392051 63.91408871 2.43139648 68.16967773 C1.73044895 70.94163066 1.73044895 70.94163066 3 73 C3.47524752 80.36633663 3.47524752 80.36633663 0 85 C0 56.95 0 28.9 0 0 Z " fill="#F1C945" transform="translate(613,376)"/>
<path d="M0 0 C0.33 0 0.66 0 1 0 C1.02338753 14.74285509 1.04100791 29.48570772 1.05181217 44.22857761 C1.0569627 51.07434777 1.06398167 57.92010639 1.07543945 64.76586914 C1.08649246 71.37294933 1.09228535 77.98002069 1.09487724 84.58711052 C1.09672426 87.1072604 1.100331 89.62740963 1.10573006 92.1475544 C1.11299355 95.67854351 1.11398869 99.20948313 1.11352539 102.74047852 C1.11712067 103.78129578 1.12071594 104.82211304 1.12442017 105.89447021 C1.10930888 116.54460523 1.10930888 116.54460523 0 121 C-2.0625 122.9375 -2.0625 122.9375 -4 124 C-3.78642853 123.32259262 -3.57285706 122.64518524 -3.35281372 121.94725037 C-0.84304767 113.15867523 -0.62625252 104.77538522 -0.7421875 95.72265625 C-0.75036906 94.14693395 -0.7570155 92.57120303 -0.76223755 90.99546814 C-0.77925277 86.85199959 -0.81333022 82.7088655 -0.85229492 78.56555176 C-0.91871698 71.24305571 -0.95634123 63.92035481 -0.9921875 56.59765625 C-0.9966967 55.79856464 -1.0012059 54.99947304 -1.00585175 54.17616653 C-1.1001874 36.10570789 -0.60994219 18.05879429 0 0 Z " fill="#0CA7F4" transform="translate(556,336)"/>
<path d="M0 0 C0.57234375 0.22429687 1.1446875 0.44859375 1.734375 0.6796875 C0.88875 1.0096875 0.043125 1.3396875 -0.828125 1.6796875 C-4.60900603 3.87947283 -6.69386462 6.2131683 -9.453125 9.5390625 C-12.19733224 12.78006587 -15.22355133 15.72083165 -18.265625 18.6796875 C-18.595625 17.6896875 -18.925625 16.6996875 -19.265625 15.6796875 C-5.56253203 -0.78642694 -5.56253203 -0.78642694 0 0 Z " fill="#12A3F4" transform="translate(235.265625,256.3203125)"/>
<path d="M0 0 C0.33 0 0.66 0 1 0 C1.01458252 0.75506836 1.02916504 1.51013672 1.04418945 2.28808594 C1.11958192 5.77585343 1.2159358 9.26275692 1.3125 12.75 C1.33505859 13.93722656 1.35761719 15.12445312 1.38085938 16.34765625 C1.59576387 23.4981148 2.45969013 29.83138811 4.56323242 36.68066406 C4.70736572 37.44604492 4.85149902 38.21142578 5 39 C4.34 39.66 3.68 40.32 3 41 C0.13905563 31.80111236 -0.37546169 23.34086591 -0.1875 13.75 C-0.17240372 12.40756735 -0.15872418 11.06511799 -0.14648438 9.72265625 C-0.11150604 6.48133056 -0.06242337 3.24089338 0 0 Z " fill="#2469CE" transform="translate(204,705)"/>
<path d="M0 0 C3.29281989 3.29281989 3.38528746 4.29191112 3.41015625 8.75585938 C3.39855469 9.47580078 3.38695312 10.19574219 3.375 10.9375 C3.38660156 11.65357422 3.39820313 12.36964844 3.41015625 13.10742188 C3.383891 17.83078927 2.96935544 19.04085941 0 23 C0 15.41 0 7.82 0 0 Z " fill="#F2C743" transform="translate(613,470)"/>
<path d="M0 0 C0.60585937 0.19335938 1.21171875 0.38671875 1.8359375 0.5859375 C7.83842217 2.45132504 13.8158897 3.88159707 20 5 C20 5.66 20 6.32 20 7 C12.18202122 7.76646851 6.12033152 5.03916589 -1 2 C-0.67 1.34 -0.34 0.68 0 0 Z " fill="#2A71DC" transform="translate(244,785)"/>
<path d="M0 0 C2.97 0.495 2.97 0.495 6 1 C5.24088921 2.48521677 4.46728766 3.96303425 3.6875 5.4375 C3.25824219 6.26121094 2.82898438 7.08492187 2.38671875 7.93359375 C1 10 1 10 -2 11 C-1.34 7.37 -0.68 3.74 0 0 Z " fill="#F0C438" transform="translate(613,544)"/>
<path d="M0 0 C0.66 0 1.32 0 2 0 C0.32076975 3.80133442 -2.11462834 6.97082702 -4.625 10.25 C-5.04523437 10.80429687 -5.46546875 11.35859375 -5.8984375 11.9296875 C-6.92938719 13.28866663 -7.96429911 14.64463835 -9 16 C-9.66 15.34 -10.32 14.68 -11 14 C-10.01 13.67 -9.02 13.34 -8 13 C-7.26676204 10.98491642 -7.26676204 10.98491642 -7 9 C-6.34 9 -5.68 9 -5 9 C-4.9175 8.443125 -4.835 7.88625 -4.75 7.3125 C-3.76104459 4.26322081 -2.15242534 2.34810037 0 0 Z " fill="#EFC63E" transform="translate(631,526)"/>
<path d="M0 0 C1.32 0 2.64 0 4 0 C4 0.66 4 1.32 4 2 C4.804375 2.268125 5.60875 2.53625 6.4375 2.8125 C7.7059375 3.4003125 7.7059375 3.4003125 9 4 C9.33 4.99 9.66 5.98 10 7 C11.65 7.33 13.3 7.66 15 8 C15 8.66 15 9.32 15 10 C8.93941903 8.60140439 4.57201885 5.05385671 0 1 C0 0.67 0 0.34 0 0 Z " fill="#2B71D7" transform="translate(228,776)"/>
<path d="M0 0 C1 3 1 3 0.375 4.875 C-1.41124809 7.63556523 -3.61994954 9.74521536 -6 12 C-6.66 11.34 -7.32 10.68 -8 10 C-5.36 6.7 -2.72 3.4 0 0 Z " fill="#F1CD3F" transform="translate(638,335)"/>
<path d="M0 0 C3.5835705 3.5835705 4.760878 9.23301685 5.19140625 14.21484375 C5.18814178 15.81116803 5.10388762 17.40705643 5 19 C3.0492171 16.07382565 2.28486538 13.97955419 1.375 10.625 C1.11460937 9.68914062 0.85421875 8.75328125 0.5859375 7.7890625 C0.02074867 5.09876365 -0.10954217 2.73855429 0 0 Z " fill="#1EBFF3" transform="translate(606,285)"/>
<path d="M0 0 C0.33 0 0.66 0 1 0 C1.33 4.29 1.66 8.58 2 13 C1.01 13.33 0.02 13.66 -1 14 C-1.02685938 11.85423363 -1.04633088 9.70837355 -1.0625 7.5625 C-1.07410156 6.36753906 -1.08570313 5.17257812 -1.09765625 3.94140625 C-1 1 -1 1 0 0 Z " fill="#15A4F6" transform="translate(609,545)"/>
<path d="M0 0 C0.99 0.33 1.98 0.66 3 1 C-0.3 3.97 -3.6 6.94 -7 10 C-7.66 9.67 -8.32 9.34 -9 9 C-6 6 -3 3 0 0 Z " fill="#1C83DF" transform="translate(590,771)"/>
<path d="M0 0 C0.8125 1.6875 0.8125 1.6875 1 4 C-1.3125 6.75 -1.3125 6.75 -4 9 C-4.66 9 -5.32 9 -6 9 C-4.47291037 5.56404834 -2.40072955 2.88087546 0 0 Z " fill="#E9CA45" transform="translate(622,356)"/>
<path d="M0 0 C0.66 0.33 1.32 0.66 2 1 C0.55922954 4.36179774 -1.24750021 6.59156268 -4 9 C-4.66 9 -5.32 9 -6 9 C-4.47291037 5.56404834 -2.40072955 2.88087546 0 0 Z " fill="#F1CE3F" transform="translate(629,347)"/>
<path d="M0 0 C0.33 0.66 0.66 1.32 1 2 C0.00390625 3.9453125 0.00390625 3.9453125 -1.4375 6.125 C-1.91058594 6.84945313 -2.38367188 7.57390625 -2.87109375 8.3203125 C-3.24363281 8.87460937 -3.61617187 9.42890625 -4 10 C-4.99 9.67 -5.98 9.34 -7 9 C-4.69 6.03 -2.38 3.06 0 0 Z " fill="#F3D040" transform="translate(649,321)"/>
<path d="M0 0 C0.66 0.33 1.32 0.66 2 1 C0.54744301 4.82946843 -1.42895561 6.12050295 -5 8 C-3.8141763 4.62496331 -2.72426311 2.35277269 0 0 Z " fill="#F5CF37" transform="translate(658,203)"/>
<path d="M0 0 C-0.61277612 2.96175123 -1.25372522 4.38058783 -3 7 C-3.66 7 -4.32 7 -5 7 C-4.625 4.0625 -4.625 4.0625 -4 1 C-2 0 -2 0 0 0 Z " fill="#E2CA42" transform="translate(616,548)"/>
<path d="M0 0 C1.31223496 3.93670488 0.24296256 6.12488144 -1 10 C-1.68707555 7.50935112 -2 5.62113708 -2 3 C-1.34 2.01 -0.68 1.02 0 0 Z " fill="#F0D147" transform="translate(615,365)"/>
<path d="M0 0 C0.33 0 0.66 0 1 0 C1 2.31 1 4.62 1 7 C0.67 7 0.34 7 0 7 C0 4.69 0 2.38 0 0 Z " fill="#79BFB7" transform="translate(613,346)"/>
<path d="M0 0 C0.33 0 0.66 0 1 0 C1 1.98 1 3.96 1 6 C0.67 6 0.34 6 0 6 C0 4.02 0 2.04 0 0 Z " fill="#68BFC5" transform="translate(613,332)"/>
<path d="M0 0 C1 4 1 4 1 4 Z " fill="#88C0A8" transform="translate(613,354)"/>
<path d="M0 0 C0.66 0 1.32 0 2 0 C1.67 0.99 1.34 1.98 1 3 C0.67 2.01 0.34 1.02 0 0 Z " fill="#4DC1DC" transform="translate(606,281)"/>
<path d="M0 0 C1 4 1 4 1 4 Z " fill="#F7DA32" transform="translate(847,266)"/>
<path d="M0 0 C1 4 1 4 1 4 Z " fill="#F6D931" transform="translate(855,204)"/>
<path d="M0 0 C0.66 0.66 1.32 1.32 2 2 C1.34 2 0.68 2 0 2 C0 1.34 0 0.68 0 0 Z " fill="#66A8B0" transform="translate(613,558)"/>
<path d="M0 0 C3 1 3 1 3 1 Z " fill="#12AFFA" transform="translate(403,358)"/>
<path d="" fill="#63BFC9" transform="translate(0,0)"/>
<path d="" fill="#5FC0D1" transform="translate(0,0)"/>
<path d="M0 0 C2 1 2 1 2 1 Z " fill="#D59F4E" transform="translate(289,830)"/>
<path d="" fill="#6279A2" transform="translate(0,0)"/>
<path d="" fill="#5CA4B9" transform="translate(0,0)"/>
<path d="M0 0 C2 1 2 1 2 1 Z " fill="#15AAF9" transform="translate(385,395)"/>
<path d="" fill="#9AC498" transform="translate(0,0)"/>
<path d="" fill="#63BECC" transform="translate(0,0)"/>
<path d="M0 0 C2 1 2 1 2 1 Z " fill="#16BDFB" transform="translate(548,311)"/>
<path d="M0 0 C2 1 2 1 2 1 Z " fill="#5AC4DB" transform="translate(612,303)"/>
<path d="" fill="#F8D831" transform="translate(0,0)"/>
<path d="" fill="#47C4E3" transform="translate(0,0)"/>
<path d="" fill="#47C2E0" transform="translate(0,0)"/>
<path d="M0 0 C2 1 2 1 2 1 Z " fill="#F8D73B" transform="translate(696,255)"/>
<path d="M0 0 C2 1 2 1 2 1 Z " fill="#18A1E7" transform="translate(256,245)"/>
<path d="" fill="#FADC33" transform="translate(0,0)"/>
<path d="" fill="#DBA447" transform="translate(0,0)"/>
<path d="" fill="#DAA349" transform="translate(0,0)"/>
<path d="" fill="#DAA448" transform="translate(0,0)"/>
<path d="" fill="#DBA049" transform="translate(0,0)"/>
<path d="" fill="#D8A048" transform="translate(0,0)"/>
<path d="" fill="#D79E49" transform="translate(0,0)"/>
<path d="" fill="#D7A04B" transform="translate(0,0)"/>
<path d="" fill="#DAA550" transform="translate(0,0)"/>
<path d="" fill="#D49F4E" transform="translate(0,0)"/>
<path d="" fill="#D0A154" transform="translate(0,0)"/>
<path d="" fill="#CF9E53" transform="translate(0,0)"/>
<path d="" fill="#CC9C5A" transform="translate(0,0)"/>
<path d="" fill="#7C93A6" transform="translate(0,0)"/>
<path d="" fill="#8C8B89" transform="translate(0,0)"/>
<path d="" fill="#637AA1" transform="translate(0,0)"/>
<path d="" fill="#5A79AE" transform="translate(0,0)"/>
<path d="" fill="#247FD0" transform="translate(0,0)"/>
<path d="" fill="#257FD1" transform="translate(0,0)"/>
<path d="" fill="#4973B4" transform="translate(0,0)"/>
<path d="" fill="#366DC0" transform="translate(0,0)"/>
<path d="" fill="#346DC1" transform="translate(0,0)"/>
<path d="" fill="#316DC4" transform="translate(0,0)"/>
<path d="" fill="#2F6BC3" transform="translate(0,0)"/>
<path d="" fill="#2C6BC4" transform="translate(0,0)"/>
<path d="" fill="#2C95DC" transform="translate(0,0)"/>
<path d="" fill="#2E99DD" transform="translate(0,0)"/>
<path d="" fill="#479FCB" transform="translate(0,0)"/>
<path d="" fill="#4B9EC7" transform="translate(0,0)"/>
<path d="" fill="#55A3C2" transform="translate(0,0)"/>
<path d="" fill="#86AC96" transform="translate(0,0)"/>
<path d="" fill="#19B1F8" transform="translate(0,0)"/>
<path d="" fill="#EAC93A" transform="translate(0,0)"/>
<path d="" fill="#17B3F9" transform="translate(0,0)"/>
<path d="" fill="#13ABF6" transform="translate(0,0)"/>
<path d="" fill="#13ADFA" transform="translate(0,0)"/>
<path d="" fill="#12A9FA" transform="translate(0,0)"/>
<path d="" fill="#EFC936" transform="translate(0,0)"/>
<path d="" fill="#16ACF9" transform="translate(0,0)"/>
<path d="" fill="#15ABFA" transform="translate(0,0)"/>
<path d="" fill="#F3D131" transform="translate(0,0)"/>
<path d="" fill="#14B1FD" transform="translate(0,0)"/>
<path d="" fill="#16B1FC" transform="translate(0,0)"/>
<path d="" fill="#A0C498" transform="translate(0,0)"/>
<path d="" fill="#17AFF8" transform="translate(0,0)"/>
<path d="" fill="#F8D633" transform="translate(0,0)"/>
<path d="" fill="#12B2FD" transform="translate(0,0)"/>
<path d="" fill="#12B4FD" transform="translate(0,0)"/>
<path d="" fill="#12AFFB" transform="translate(0,0)"/>
<path d="" fill="#A1C294" transform="translate(0,0)"/>
<path d="" fill="#17ABF7" transform="translate(0,0)"/>
<path d="" fill="#AEC181" transform="translate(0,0)"/>
<path d="" fill="#98C39E" transform="translate(0,0)"/>
<path d="" fill="#EECE2F" transform="translate(0,0)"/>
<path d="" fill="#F8D835" transform="translate(0,0)"/>
<path d="" fill="#FADA34" transform="translate(0,0)"/>
<path d="" fill="#72C1BF" transform="translate(0,0)"/>
<path d="" fill="#F8D834" transform="translate(0,0)"/>
<path d="" fill="#6DBDC2" transform="translate(0,0)"/>
<path d="" fill="#F8D933" transform="translate(0,0)"/>
<path d="" fill="#15B0F8" transform="translate(0,0)"/>
<path d="" fill="#13B4FA" transform="translate(0,0)"/>
<path d="" fill="#FADB34" transform="translate(0,0)"/>
<path d="" fill="#FADB34" transform="translate(0,0)"/>
<path d="" fill="#FADF35" transform="translate(0,0)"/>
<path d="" fill="#EDCF30" transform="translate(0,0)"/>
<path d="" fill="#FEDE37" transform="translate(0,0)"/>
<path d="" fill="#FCDD36" transform="translate(0,0)"/>
<path d="" fill="#F1D232" transform="translate(0,0)"/>
<path d="" fill="#FCDD37" transform="translate(0,0)"/>
<path d="" fill="#DDCA57" transform="translate(0,0)"/>
<path d="" fill="#17B5F6" transform="translate(0,0)"/>
<path d="" fill="#17BDFA" transform="translate(0,0)"/>
<path d="" fill="#63C0CC" transform="translate(0,0)"/>
<path d="" fill="#14BDFC" transform="translate(0,0)"/>
<path d="" fill="#15BCFC" transform="translate(0,0)"/>
<path d="" fill="#16BBFC" transform="translate(0,0)"/>
<path d="" fill="#17BEFD" transform="translate(0,0)"/>
<path d="" fill="#E6D053" transform="translate(0,0)"/>
<path d="" fill="#54C7DC" transform="translate(0,0)"/>
<path d="" fill="#EBD24C" transform="translate(0,0)"/>
<path d="" fill="#56C3DA" transform="translate(0,0)"/>
<path d="" fill="#5BC0D4" transform="translate(0,0)"/>
<path d="" fill="#54C4DC" transform="translate(0,0)"/>
<path d="" fill="#1C8FDB" transform="translate(0,0)"/>
<path d="" fill="#F5D742" transform="translate(0,0)"/>
<path d="" fill="#48C3E0" transform="translate(0,0)"/>
<path d="" fill="#4DC3DD" transform="translate(0,0)"/>
<path d="" fill="#46C3E3" transform="translate(0,0)"/>
<path d="" fill="#4DC2DD" transform="translate(0,0)"/>
<path d="" fill="#55C2D7" transform="translate(0,0)"/>
<path d="" fill="#F9DB31" transform="translate(0,0)"/>
<path d="" fill="#49C2DF" transform="translate(0,0)"/>
<path d="" fill="#45C0E0" transform="translate(0,0)"/>
<path d="" fill="#1B93DE" transform="translate(0,0)"/>
<path d="" fill="#FADE3A" transform="translate(0,0)"/>
<path d="" fill="#1F96DC" transform="translate(0,0)"/>
<path d="" fill="#FCDD3A" transform="translate(0,0)"/>
<path d="" fill="#FADA38" transform="translate(0,0)"/>
<path d="" fill="#FBDA3B" transform="translate(0,0)"/>
<path d="" fill="#FADA3C" transform="translate(0,0)"/>
<path d="" fill="#3ABCE3" transform="translate(0,0)"/>
<path d="" fill="#F8DA3C" transform="translate(0,0)"/>
<path d="" fill="#3FBBE0" transform="translate(0,0)"/>
<path d="" fill="#1B9DE3" transform="translate(0,0)"/>
<path d="" fill="#3CB9E1" transform="translate(0,0)"/>
<path d="" fill="#32BEE2" transform="translate(0,0)"/>
<path d="" fill="#F7D73E" transform="translate(0,0)"/>
<path d="" fill="#F8D73E" transform="translate(0,0)"/>
<path d="" fill="#29BBE9" transform="translate(0,0)"/>
<path d="" fill="#1FB9EB" transform="translate(0,0)"/>
<path d="" fill="#18B9EF" transform="translate(0,0)"/>
<path d="" fill="#19BBF2" transform="translate(0,0)"/>
<path d="" fill="#13B7F5" transform="translate(0,0)"/>
<path d="" fill="#14B5EF" transform="translate(0,0)"/>
<path d="" fill="#14A7EC" transform="translate(0,0)"/>
<path d="" fill="#F2D541" transform="translate(0,0)"/>
<path d="" fill="#F1D43F" transform="translate(0,0)"/>
<path d="" fill="#E7D04C" transform="translate(0,0)"/>
<path d="" fill="#F6DA32" transform="translate(0,0)"/>
<path d="" fill="#ECCE34" transform="translate(0,0)"/>
<path d="" fill="#EDCB35" transform="translate(0,0)"/>
<path d="" fill="#F4D233" transform="translate(0,0)"/>
<path d="" fill="#F5D532" transform="translate(0,0)"/>
<path d="" fill="#F4D632" transform="translate(0,0)"/>
<path d="" fill="#F6D330" transform="translate(0,0)"/>
<path d="" fill="#F8D834" transform="translate(0,0)"/>
<path d="" fill="#F9D931" transform="translate(0,0)"/>
<path d="" fill="#F7DA32" transform="translate(0,0)"/>
<path d="" fill="#F9DA34" transform="translate(0,0)"/>
<path d="" fill="#F7D734" transform="translate(0,0)"/>
<path d="" fill="#F7DA31" transform="translate(0,0)"/>
<path d="" fill="#FAD830" transform="translate(0,0)"/>
<path d="" fill="#E5C828" transform="translate(0,0)"/>
<path d="" fill="#F7D934" transform="translate(0,0)"/>
<path d="" fill="#F9DB30" transform="translate(0,0)"/>
<path d="" fill="#F4D930" transform="translate(0,0)"/>
<path d="" fill="#F5D730" transform="translate(0,0)"/>
<path d="" fill="#F6D830" transform="translate(0,0)"/>
<path d="" fill="#F3D331" transform="translate(0,0)"/>
</svg>
